<?xml version="1.0" encoding="utf-8"?>
<!-- Generator: Adobe Illustrator 24.0.2, SVG Export Plug-In . SVG Version: 6.00 Build 0)  -->
<svg version="1.1" id="Capa_1" xmlns="http://www.w3.org/2000/svg" xmlns:xlink="http://www.w3.org/1999/xlink" x="0px" y="0px"
	 viewBox="0 0 500 366" style="enable-background:new 0 0 500 366;" xml:space="preserve">
<style type="text/css">
	.st0{fill:#191919;}
</style>
<g>
	<path class="st0" d="M190.13,288.51c0.84,2.5,3.17,4.19,5.81,4.19c73.57,0,149.64,0,225.11,0.19c0,0,0.01,0,0.02,0
		c3.38,0,6.12-2.73,6.13-6.11c0.01-3.39-2.73-6.13-6.12-6.14c-73.97-0.19-148.51-0.19-220.71-0.19
		c-8.59-26.02-16.18-51.31-24.21-78.02c-4.23-14.08-8.6-28.64-13.11-43.19c-3.64-13.1-7.36-25.2-12.45-40.45
		c-9.98-33.01-30.02-97.71-30.22-98.36c-0.8-2.56-3.17-4.31-5.86-4.31h-11.9C101.59,9.84,95.86,5,88.94,5H22.65
		C14.99,5,8.77,10.91,8.77,18.17v8.23c0,7.26,6.22,13.18,13.88,13.18h66.29c6.94,0,12.69-4.87,13.7-11.19h7.38
		c4.67,15.09,20.43,66.05,28.89,94.04c0.02,0.05,0.04,0.11,0.06,0.16c5.04,15.12,8.72,27.08,12.32,40.03
		c0.02,0.06,0.03,0.11,0.05,0.17c4.49,14.54,8.86,29.11,13.1,43.19C172.53,232.95,180.92,260.86,190.13,288.51z"/>
	<path class="st0" d="M476.84,73.47H166.19c-7.65,0-13.88,5.91-13.88,13.17v8.23c0,7.27,6.23,13.17,13.88,13.17h4.42l46.63,158.55
		c0.77,2.61,3.16,4.4,5.88,4.4h196.8c2.72,0,5.11-1.79,5.88-4.4l46.63-158.55h4.42c7.66,0,13.88-5.9,13.88-13.17v-8.23
		C490.72,79.39,484.5,73.47,476.84,73.47z"/>
	<path class="st0" d="M195.85,295.21c-17.59,0-31.9,14.31-31.9,31.89c0,17.6,14.31,31.9,31.9,31.9c17.59,0,31.9-14.3,31.9-31.9
		C227.75,309.52,213.44,295.21,195.85,295.21z"/>
	<path class="st0" d="M424.43,295.21c-17.59,0-31.89,14.31-31.89,31.89c0,17.6,14.31,31.9,31.89,31.9c17.59,0,31.9-14.3,31.9-31.9
		C456.33,309.52,442.02,295.21,424.43,295.21z"/>
</g>
</svg>
