<svg id="OBJECTS" xmlns="http://www.w3.org/2000/svg" viewBox="0 0 280.72 276.51"><defs><style>.cls-1{fill:#d3d3d3;}</style></defs><title>movie</title><path class="cls-1" d="M255.84,0h-231A22.83,22.83,0,0,0,2.11,22.77v231a22.83,22.83,0,0,0,22.76,22.77h231a22.84,22.84,0,0,0,22.77-22.77v-231A22.84,22.84,0,0,0,255.84,0ZM47,266.74H24.8V242.62H47Zm0-38.81H24.8V203.81H47Zm0-38.8H24.8V165H47Zm0-38.81H24.8V126.19H47Zm0-38.81H24.8V87.38H47ZM47,72.7H24.8V48.58H47Zm0-38.81H24.8V9.76H47ZM63.81,7.34h153.1V118H63.81Zm153.1,261.83H63.81V158.55h153.1Zm39-2.43H233.7V242.62h22.22Zm0-38.81H233.7V203.81h22.22Zm0-38.8H233.7V165h22.22Zm0-38.81H233.7V126.19h22.22Zm0-38.81H233.7V87.38h22.22Zm0-38.81H233.7V48.58h22.22Zm0-38.81H233.7V9.76h22.22Z"/></svg>