<?xml version="1.0" encoding="utf-8"?>
<!-- Generator: Adobe Illustrator 24.0.2, SVG Export Plug-In . SVG Version: 6.00 Build 0)  -->
<svg version="1.1" xmlns="http://www.w3.org/2000/svg" xmlns:xlink="http://www.w3.org/1999/xlink" x="0px" y="0px"
	 viewBox="0 0 280.72 276.51" style="enable-background:new 0 0 280.72 276.51;" xml:space="preserve">
<style type="text/css">
	.st0{display:none;}
	.st1{display:inline;fill:#1A94B9;}
	.st2{fill:#1B7D93;}
	.st3{fill:#FFFFFF;}
	.st4{fill:#1A94B9;}
	.st5{fill:#173975;}
	.st6{fill:#16CDDE;}
	.st7{fill:url(#SVGID_1_);}
	.st8{fill:url(#SVGID_2_);}
	.st9{fill:url(#SVGID_3_);}
	.st10{fill:#565656;}
	.st11{clip-path:url(#SVGID_5_);}
	.st12{display:inline;fill:#F1EFFC;}
	.st13{display:inline;fill:#D3D3D3;}
	.st14{display:none;fill:#D3D3D3;}
	.st15{display:inline;fill:#3A4145;}
	.st16{fill:#D3D3D3;}
	.st17{fill:#1C1C1B;}
</style>
<g id="BACKGROUND" class="st0">
	<rect x="-100.21" y="-125.81" class="st1" width="500" height="500"/>
</g>
<g id="OBJECTS">
	<g id="birrete" class="st0">
		<polygon class="st12" points="142.8,0.52 -94.1,89.22 -80.91,94.15 142.81,177.9 350.73,100.06 379.71,89.22 		"/>
		<path class="st12" d="M0.72,150.54v21.71v52.84c0,28.4,63.61,51.41,142.08,51.41c53.2,0,99.54-10.58,123.88-26.24
			c11.57-7.44,18.2-16.02,18.2-25.17v-74.55l-142.07,53.18L0.72,150.54z"/>
	</g>
	<g id="portafolio" class="st0">
		<path class="st13" d="M90.53,50.5h7.26c3.57,0,6.57-1.62,6.57-3.54V27.18c0-2.35,1.98-4.33,4.33-4.33H172
			c2.34,0,4.33,1.98,4.33,4.33v20c0,1.77,3.07,3.32,6.57,3.32h7.27c3.5,0,6.57-1.55,6.57-3.32v-20c0-13.64-11.1-24.74-24.74-24.74
			h-63.32c-13.63,0-24.73,11.09-24.73,24.74v19.46C83.95,48.73,86.96,50.5,90.53,50.5z"/>
		<path class="st13" d="M130.34,190.82h20.01c3.63,0,6.57-2.95,6.57-6.57v-7.47c0-3.63-2.95-6.57-6.57-6.57h-20.01
			c-3.63,0-6.58,2.94-6.58,6.57v7.47C123.77,187.87,126.72,190.82,130.34,190.82z"/>
		<path class="st13" d="M123.77,218.6c0,3.63,2.95,6.57,6.58,6.57h20.01c3.63,0,6.57-2.95,6.57-6.57v-9.86
			c0-3.62-2.95-6.57-6.57-6.57h-20.01c-3.63,0-6.58,2.95-6.58,6.57V218.6z"/>
		<path class="st13" d="M274.84,179.09c-1.78,0.66-3.33,1.21-4.78,1.71c-32.14,11.07-66.69,17.82-102.78,20.08v12.75
			c0,11.16-9.09,20.25-20.25,20.25h-13.36c-11.16,0-20.25-9.08-20.25-20.25v-12.76c-38.97-2.43-76.01-10.07-110.16-22.71
			c-0.98-0.28-2.76-0.97-7.07-2.7l-0.56-0.22c-0.24-0.1-0.48-0.19-0.72-0.29v83.05c0,9.14,7.44,16.58,16.57,16.58h257.73
			c9.14,0,16.57-7.44,16.57-16.58v-83.17c-1.16,0.47-2.4,0.96-3.7,1.48L274.84,179.09z"/>
		<path class="st13" d="M275.72,63H4.98c-8.87,0-16.07,7.21-16.07,16.08v71.86c0,1.69,1.69,4.28,3.23,4.96
			c0.05,0.02,2.97,1.3,7.71,3.19c34.32,13.66,73.53,22.19,113.61,24.81v-12.08c0-8.01,12.09-13.47,20.2-13.47h13.36
			c9.43,0,20.19,6.19,19.97,15.6v9.96c34.81-2.24,68.39-8.77,99.34-19.43c9.77-3.36,22.12-8.62,22.24-8.67
			c1.54-0.65,3.21-3.19,3.21-4.86V79.08C291.79,70.21,284.57,63,275.72,63z"/>
	</g>
	<path class="st14" d="M255.84,0h-31.6h-6.85H63.32h-6.85h-31.6C12.35,0,2.11,10.25,2.11,22.77v42.73v9.7v126.12v7.28v45.15
		c0,12.52,10.24,22.77,22.76,22.77h31.6h6.85h154.07h6.85h31.6c12.52,0,22.76-10.24,22.76-22.77v-45.15v-7.28V75.19v-9.7V22.77
		C278.61,10.25,268.37,0,255.84,0z M47.02,266.74H24.8v-24.13h22.22V266.74z M47.02,227.93H24.8v-24.12h22.22V227.93z M47.02,189.13
		H24.8v-24.12h22.22V189.13z M47.02,150.32H24.8v-24.12h22.22V150.32z M47.02,111.51H24.8V87.38h22.22V111.51z M47.02,72.7H24.8
		V48.58h22.22V72.7z M47.02,33.89H24.8V9.76h22.22V33.89z M63.81,7.34h153.1v110.62H63.81V7.34z M216.91,269.17H63.81V158.55h153.1
		V269.17z M255.92,266.74H233.7v-24.13h22.22V266.74z M255.92,227.93H233.7v-24.12h22.22V227.93z M255.92,189.13H233.7v-24.12h22.22
		V189.13z M255.92,150.32H233.7v-24.12h22.22V150.32z M255.92,111.51H233.7V87.38h22.22V111.51z M255.92,72.7H233.7V48.58h22.22
		V72.7z M255.92,33.89H233.7V9.76h22.22V33.89z"/>
	<g id="pc" class="st0">
		<path class="st13" d="M182.43,240.46H98.29c-20.77,0-37.61,16.84-37.61,37.61h159.35C220.03,257.3,203.2,240.46,182.43,240.46z"/>
		<rect x="115.85" y="203.99" class="st13" width="49.01" height="28.49"/>
		<path class="st13" d="M273.61,0H7.1C3.2,0,0,3.2,0,7.1v180.67c0,3.91,3.2,7.1,7.1,7.1h266.51c3.91,0,7.1-3.2,7.1-7.1V7.1
			C280.72,3.2,277.52,0,273.61,0z M253.45,160.42c0,3.91-3.26,7.1-7.25,7.1H34.52c-3.99,0-7.25-3.2-7.25-7.1V34.46
			c0-3.91,3.26-7.1,7.25-7.1H246.2c3.99,0,7.25,3.2,7.25,7.1V160.42z"/>
	</g>
	<path class="st16" d="M263.93,169.92c0.04-0.26,0.08-0.53,0.08-0.81c0-77.06-14.04-165.54-123.66-165.54
		c-43.55,0-71.98,14.01-90.47,35.69c-28.03,32.87-33.16,83.42-33.16,129.85c0,0.28,0.04,0.54,0.08,0.81
		c-2.86,2.51-5.34,5.19-7.45,8.01c-5.33,7.09-8.18,15.03-7.71,23.31l1.43,25.6c0.85,15.42,12.92,28.47,30.88,36.17
		c3.35,1.44,6.91,2.68,10.64,3.72c2.42,0.67,4.88,1.29,7.43,1.79c-2.38-0.47-4.61-1.12-6.89-1.73l-5.81-110.1
		c1.1-0.44,2.22-0.86,3.34-1.27c1.69-0.6,3.39-1.19,5.16-1.7c0.65-0.21,1.16-0.31,1.75-0.47l6.14,115.91
		c-1.16-0.18-2.31-0.37-3.69-0.63c5.9,1.16,9.56,1.47,13.02,1.59c1.17,0.04,2.31,0.06,3.51,0.08c4.75,0.09,8.11-9.23,7.48-20.69
		l-4.4-78.92c-0.63-11.45-4.67-20.4-8.97-19.87c-2.21,0.28-4.22,0.52-6.62,0.97c1.2-29.31,6.09-56.32,20.87-75.01
		c12.63-15.95,32.45-25.83,63.44-25.83c67.31,0,82.12,46.5,84.34,100.84c-2.4-0.45-4.41-0.7-6.62-0.97
		c-1.51-0.18-2.99,0.82-4.3,2.68c-1.34,1.91-2.51,4.71-3.34,8.12c-0.67,2.71-1.14,5.79-1.32,9.08l-4.4,78.92
		c-0.63,11.45,2.73,20.77,7.48,20.69c0.99-0.02,1.94-0.04,2.9-0.06c2.99-0.08,6.06-0.29,10.5-1.04c0.98-0.17,2-0.35,3.12-0.57
		c-1.39,0.26-2.53,0.45-3.69,0.63l6.14-115.91c0.59,0.16,1.1,0.26,1.75,0.47c1.77,0.51,3.47,1.1,5.16,1.7
		c1.12,0.41,2.24,0.83,3.34,1.27l-5.81,110.1c-2.28,0.61-4.5,1.26-6.89,1.73c12.58-2.45,23.59-7.16,32-13.45
		c10.04-7.5,16.34-17.26,16.95-28.23l1.43-25.6C279.74,189.67,274,178.74,263.93,169.92z M253.3,162.36
		c-2.37-1.39-4.86-2.67-7.47-3.86c-0.46-30.33-4.51-80.95-39.89-108.76c-15.28-12.01-36.37-19.77-65.58-19.77
		c-37.98,0-62.25,13.13-77.8,31.68C38.44,90.38,35.3,132.11,34.9,158.5c-2.7,1.23-5.27,2.56-7.71,4
		c0.16-14.61,0.88-29.18,2.66-43.19C33.41,91.53,41.15,66.01,57,47.05c16.17-19.35,40.84-31.82,78.07-32.9
		c1.75-0.05,3.48-0.13,5.28-0.13c96.9,0,112.38,73.96,113.18,148.48C253.45,162.45,253.38,162.41,253.3,162.36z"/>
</g>
<g id="DESIGNED_BY_FREEPIK">
</g>
</svg>
