<?xml version="1.0" encoding="utf-8"?>
<!-- Generator: Adobe Illustrator 24.0.2, SVG Export Plug-In . SVG Version: 6.00 Build 0)  -->
<svg version="1.1" xmlns="http://www.w3.org/2000/svg" xmlns:xlink="http://www.w3.org/1999/xlink" x="0px" y="0px"
	 viewBox="0 0 308 276.51" style="enable-background:new 0 0 308 276.51;" xml:space="preserve">
<style type="text/css">
	.st0{display:none;}
	.st1{display:inline;fill:#1A94B9;}
	.st2{fill:#1B7D93;}
	.st3{fill:#FFFFFF;}
	.st4{fill:#1A94B9;}
	.st5{fill:#173975;}
	.st6{fill:#16CDDE;}
	.st7{fill:url(#SVGID_1_);}
	.st8{fill:url(#SVGID_2_);}
	.st9{fill:url(#SVGID_3_);}
	.st10{fill:#565656;}
	.st11{clip-path:url(#SVGID_5_);}
	.st12{display:inline;fill:#F1EFFC;}
	.st13{fill:#D3D3D3;}
	.st14{fill:#1C1C1B;}
</style>
<g id="BACKGROUND" class="st0">
	<rect x="-87" y="-125.81" class="st1" width="500" height="500"/>
</g>
<g id="OBJECTS">
	<g id="birrete" class="st0">
		<polygon class="st12" points="156.01,0.52 -80.89,89.22 -67.7,94.15 156.02,177.9 363.94,100.06 392.92,89.22 		"/>
		<path class="st12" d="M13.93,150.54v21.71v52.84c0,28.4,63.61,51.41,142.08,51.41c53.2,0,99.54-10.58,123.88-26.24
			c11.57-7.44,18.2-16.02,18.2-25.17v-74.55l-142.07,53.18L13.93,150.54z"/>
	</g>
	<g>
		<path class="st13" d="M103.73,50.5H111c3.57,0,6.57-1.62,6.57-3.54V27.18c0-2.35,1.98-4.33,4.33-4.33h63.32
			c2.34,0,4.33,1.98,4.33,4.33v20c0,1.77,3.07,3.32,6.57,3.32h7.27c3.5,0,6.57-1.55,6.57-3.32v-20c0-13.64-11.1-24.74-24.74-24.74
			h-63.32c-13.63,0-24.73,11.09-24.73,24.74v19.46C97.16,48.73,100.17,50.5,103.73,50.5z"/>
		<path class="st13" d="M143.55,190.82h20.01c3.63,0,6.57-2.95,6.57-6.57v-7.47c0-3.63-2.95-6.57-6.57-6.57h-20.01
			c-3.63,0-6.58,2.94-6.58,6.57v7.47C136.97,187.87,139.92,190.82,143.55,190.82z"/>
		<path class="st13" d="M136.97,218.6c0,3.63,2.95,6.57,6.58,6.57h20.01c3.63,0,6.57-2.95,6.57-6.57v-9.86
			c0-3.62-2.95-6.57-6.57-6.57h-20.01c-3.63,0-6.58,2.95-6.58,6.57V218.6z"/>
		<path class="st13" d="M288.05,179.09c-1.78,0.66-3.33,1.21-4.78,1.71c-32.14,11.07-66.69,17.82-102.78,20.08v12.75
			c0,11.16-9.09,20.25-20.25,20.25h-13.36c-11.16,0-20.25-9.08-20.25-20.25v-12.76c-38.97-2.43-76.01-10.07-110.16-22.71
			c-0.98-0.28-2.76-0.97-7.07-2.7l-0.56-0.22c-0.24-0.1-0.48-0.19-0.72-0.29v83.05c0,9.14,7.44,16.58,16.57,16.58h257.73
			c9.14,0,16.57-7.44,16.57-16.58v-83.17c-1.16,0.47-2.4,0.96-3.7,1.48L288.05,179.09z"/>
		<path class="st13" d="M288.92,63H18.19C9.32,63,2.11,70.21,2.11,79.08v71.86c0,1.69,1.69,4.28,3.23,4.96
			c0.05,0.02,2.97,1.3,7.71,3.19c34.32,13.66,73.53,22.19,113.61,24.81v-12.08c0-8.01,12.09-13.47,20.2-13.47h13.36
			c9.43,0,20.19,6.19,19.97,15.6v9.96c34.81-2.24,68.39-8.77,99.34-19.43c9.77-3.36,22.12-8.62,22.24-8.67
			c1.54-0.65,3.21-3.19,3.21-4.86V79.08C305,70.21,297.78,63,288.92,63z"/>
	</g>
</g>
<g id="DESIGNED_BY_FREEPIK">
</g>
</svg>
